# xmcd CD database file
#
# Track frame offsets:
#	150
#	2530
#	8322
#	16177
#	47087
#	68740
#	84742
#	109697
#	128875
#	156175
#	181057
#
# Disc length: 2731 seconds
#
# Revision: 0
# Processed by: cddbd v1.4PL0 Copyright (c) Steve Scherf et al.
# Submitted via: CDex 1.51
#
DISCID=730aa90b
DTITLE=The Hub - Trucker
DYEAR=2002
DGENRE=Jazz
TTITLE0=Trucker
TTITLE1=You're welcome
TTITLE2=Baby
TTITLE3=Tits
TTITLE4=Canada
TTITLE5=O'Brien
TTITLE6=Cash. Ho's, Rides, Kicks
TTITLE7=Gypsy
TTITLE8=2991
TTITLE9=Burn it down
TTITLE10=Huge
EXTD=YEAR: 2002
EXTT0=
EXTT1=
EXTT2=
EXTT3=
EXTT4=
EXTT5=
EXTT6=
EXTT7=
EXTT8=
EXTT9=
EXTT10=
PLAYORDER=
